# xmcd
#
# Track frame offsets: 
#        150
#        11809
#        22715
#        32976
#        43932
#        54107
#        67394
#        82140
#        97146
#        108804
#
# Disc length: 1650 seconds
#
# Revision: 0
# Processed by: cddbd v1.5.1PL0 Copyright (c) Steve Scherf et al.
# Submitted via: ExactAudioCopy v0.95a5
#
DISCID=8306700a
DTITLE=Various Artist - Real 60's: The Psychadelic Hits [CD1]
DYEAR=2003
DGENRE=Pop/Rock
TTITLE0=Jefferson Airplane - White Rabbit
TTITLE1=The Lemon Pipers - Green Tambourine
TTITLE2=The Tradewinds - Mind Excursion
TTITLE3=The Sopwith "Camel" - Hello Hello
TTITLE4=The Youngbloods - Euphoria
TTITLE5=Elephant's Memory - Crossroads Of The Stepping Stones
TTITLE6=Zager and Evans - In The Year 2525 (Exordium and Terminus)
TTITLE7=Eire Apparent - The Clown
TTITLE8=The Vacels - Can You Please Crawl Out Your Window?
TTITLE9=Nilsson - Subterranean Homesick Blues
EXTD=
EXTT0=
EXTT1=
EXTT2=
EXTT3=
EXTT4=
EXTT5=
EXTT6=
EXTT7=
EXTT8=
EXTT9=
PLAYORDER=
